<mxfile host="app.diagrams.net" modified="2021-09-22T08:26:36.563Z" agent="5.0 (Windows)" etag="7JXOOMh7u362GzC_rWcj" version="14.9.9" type="github">
  <diagram id="acEJrxjFhiaEBB2siO5W" name="Page-1">
    <mxGraphModel dx="2887" dy="927" grid="1" gridSize="10" guides="1" tooltips="1" connect="1" arrows="1" fold="1" page="1" pageScale="1" pageWidth="1169" pageHeight="1654" math="0" shadow="0">
      <root>
        <mxCell id="0" />
        <mxCell id="1" parent="0" />
        <mxCell id="xMg5sKtqhx4sAsG4TyxQ-1" value="" style="rounded=0;whiteSpace=wrap;html=1;" vertex="1" parent="1">
          <mxGeometry x="-50" y="270" width="1280" height="680" as="geometry" />
        </mxCell>
        <mxCell id="xMg5sKtqhx4sAsG4TyxQ-2" value="Imonė" style="text;html=1;strokeColor=none;fillColor=none;align=center;verticalAlign=middle;whiteSpace=wrap;rounded=0;" vertex="1" parent="1">
          <mxGeometry x="565" y="270" width="40" height="20" as="geometry" />
        </mxCell>
        <mxCell id="xMg5sKtqhx4sAsG4TyxQ-3" value="&lt;div&gt;Direktorius&lt;/div&gt;" style="shape=umlActor;verticalLabelPosition=bottom;verticalAlign=top;html=1;outlineConnect=0;" vertex="1" parent="1">
          <mxGeometry x="570" y="300" width="30" height="60" as="geometry" />
        </mxCell>
        <mxCell id="xMg5sKtqhx4sAsG4TyxQ-4" value="&lt;div&gt;Programuotojai&lt;/div&gt;" style="shape=umlActor;verticalLabelPosition=bottom;verticalAlign=top;html=1;outlineConnect=0;" vertex="1" parent="1">
          <mxGeometry x="800" y="730" width="30" height="60" as="geometry" />
        </mxCell>
        <mxCell id="xMg5sKtqhx4sAsG4TyxQ-5" value="Automobilių skelbimų svetainė" style="rounded=0;whiteSpace=wrap;html=1;" vertex="1" parent="1">
          <mxGeometry x="1049" y="800" width="120" height="60" as="geometry" />
        </mxCell>
        <mxCell id="xMg5sKtqhx4sAsG4TyxQ-6" value="&lt;div&gt;Kuria naują funkcionalumą&lt;/div&gt;" style="endArrow=classic;html=1;" edge="1" parent="1" source="xMg5sKtqhx4sAsG4TyxQ-4" target="xMg5sKtqhx4sAsG4TyxQ-5">
          <mxGeometry width="50" height="50" relative="1" as="geometry">
            <mxPoint x="1010" y="760" as="sourcePoint" />
            <mxPoint x="1060" y="710" as="targetPoint" />
          </mxGeometry>
        </mxCell>
      </root>
    </mxGraphModel>
  </diagram>
</mxfile>
